<svg width="98" height="100" viewBox="0 0 98 100" fill="none" xmlns="http://www.w3.org/2000/svg">
<path d="M97.4353 47.095C97.4353 57.6721 93.885 67.48 87.9357 75.3647C84.6732 79.5956 80.739 83.3457 76.2291 86.2303C68.9364 91.0381 60.2045 93.8266 50.8008 93.8266C24.9887 93.8266 4.07031 72.8647 4.07031 47.095C4.07031 21.2291 24.9887 0.363281 50.7048 0.363281C60.1085 0.363281 68.8405 3.1518 76.1331 7.86343C80.6431 10.7481 84.5772 14.4982 87.8397 18.729C93.885 26.7099 97.4353 36.4217 97.4353 47.095Z" fill="#EAEEF9"/>
<path d="M28.923 11.8044C29.7866 11.8044 30.5542 11.1314 30.5542 10.1698C30.5542 9.3044 29.8826 8.53516 28.923 8.53516C28.0594 8.53516 27.2917 9.20825 27.2917 10.1698C27.2917 11.1314 28.0594 11.8044 28.923 11.8044Z" fill="url(#paint0_linear_1_20544)"/>
<path d="M78.724 89.5974C79.5876 89.5974 80.3553 88.9243 80.3553 87.9628C80.3553 87.0012 79.6836 86.3281 78.724 86.3281C77.8604 86.3281 77.0928 87.0012 77.0928 87.9628C77.0928 88.9243 77.8604 89.5974 78.724 89.5974Z" fill="url(#paint1_linear_1_20544)"/>
<path d="M88.1276 10.1707C88.9912 10.1707 89.6629 9.49764 89.6629 8.63224C89.6629 7.76684 88.9912 7.09375 88.1276 7.09375C87.264 7.09375 86.5923 7.76684 86.5923 8.63224C86.5923 9.49764 87.264 10.1707 88.1276 10.1707Z" fill="url(#paint2_linear_1_20544)"/>
<g filter="url(#filter0_d_1_20544)">
<path d="M60.8686 52.6768V64.367C60.8686 65.3195 59.8311 65.8391 59.0529 65.2329L56.7185 63.5011C56.2862 63.2413 55.7674 63.2413 55.3351 63.5011L51.8767 66.0989C51.4444 66.3587 50.9256 66.3587 50.4933 66.0989L47.0349 63.5011C46.6026 63.2413 46.0838 63.2413 45.6515 63.5011L42.1931 66.0989C41.7608 66.3587 41.2421 66.3587 40.8098 66.0989L37.3513 63.5011C36.919 63.2413 36.4003 63.2413 35.968 63.5011L32.5095 66.0989C32.0772 66.3587 31.5585 66.3587 31.1262 66.0989L27.6678 63.5011C27.2354 63.2413 26.7167 63.2413 26.2844 63.5011L23.9499 65.2329C23.1718 65.7525 22.1343 65.2329 22.1343 64.367V27.3048C22.2207 20.8102 23.4312 18.0392 28.8782 15.9609H67.6125C62.252 17.3464 60.6957 20.7236 60.8686 27.3048V43.671V52.6768Z" fill="white"/>
</g>
<path opacity="0.4" d="M51.9631 31.5496H39.2534C38.5617 31.5496 38.043 31.0301 38.043 30.3373C38.043 29.6446 38.5617 29.125 39.2534 29.125H52.0496C52.7413 29.125 53.26 29.6446 53.26 30.3373C53.1736 31.0301 52.6548 31.5496 51.9631 31.5496Z" fill="#4C5865"/>
<path opacity="0.4" d="M34.671 31.5496H29.051C28.3593 31.5496 27.8406 31.0301 27.8406 30.3373C27.8406 29.6446 28.3593 29.125 29.051 29.125H34.671C35.3626 29.125 35.8814 29.6446 35.8814 30.3373C35.8814 31.0301 35.3626 31.5496 34.671 31.5496Z" fill="#4C5865"/>
<path opacity="0.4" d="M51.9631 41.6785H29.051C28.3593 41.6785 27.8406 41.159 27.8406 40.4662C27.8406 39.7735 28.3593 39.2539 29.051 39.2539H51.9631C52.6547 39.2539 53.1735 39.7735 53.1735 40.4662C53.1735 41.159 52.6547 41.6785 51.9631 41.6785Z" fill="#4C5865"/>
<path opacity="0.4" d="M46.3432 51.7254H37.4377C36.7461 51.7254 36.2273 51.2058 36.2273 50.5131C36.2273 49.8203 36.7461 49.3008 37.4377 49.3008H46.3432C47.0349 49.3008 47.5536 49.8203 47.5536 50.5131C47.5536 51.2058 46.9484 51.7254 46.3432 51.7254Z" fill="#4C5865"/>
<path opacity="0.4" d="M32.5094 51.7254H29.051C28.3593 51.7254 27.8406 51.2058 27.8406 50.5131C27.8406 49.8203 28.3593 49.3008 29.051 49.3008H32.5094C33.2011 49.3008 33.7199 49.8203 33.7199 50.5131C33.7199 51.2058 33.1147 51.7254 32.5094 51.7254Z" fill="#4C5865"/>
<path d="M79.3711 52.0702V77.0959C79.3711 78.0484 78.593 78.8278 77.6419 78.8278C74.097 78.8278 65.9697 78.9144 63.6353 78.9144C63.203 78.9144 62.7707 78.7412 62.5113 78.4814L60.5227 76.7495L56.8049 73.2858C55.508 72.0734 54.4705 70.6013 53.8653 68.8695L50.2339 58.305L49.0235 54.8412L48.937 54.668L47.2943 49.8188C47.2078 49.559 47.1213 49.2992 47.1213 48.9528V48.8663C47.1213 47.9137 47.7266 47.0478 48.5912 46.6148C50.8391 45.5757 53.433 46.2684 54.9028 48.0869C55.1622 48.4333 55.4216 48.8663 55.5945 49.2992L58.3612 56.0535L59.0529 57.7854L59.1394 57.9586C59.3987 58.6514 60.1769 58.9977 60.8686 58.738L65.6239 57.3525C66.2291 57.1793 66.575 56.6597 66.575 56.0535L66.3156 51.9836C66.2291 50.7713 65.7968 49.559 64.9322 48.6931L60.7821 44.1036V37.4358L60.4842 30.3242L77.0367 46.6148C78.5065 48.0869 79.3711 50.0786 79.3711 52.0702Z" fill="white" stroke="#1C3754" stroke-miterlimit="10" stroke-linecap="round" stroke-linejoin="round"/>
<defs>
<filter id="filter0_d_1_20544" x="0.134277" y="4.96094" width="89.4783" height="94.332" filterUnits="userSpaceOnUse" color-interpolation-filters="sRGB">
<feFlood flood-opacity="0" result="BackgroundImageFix"/>
<feColorMatrix in="SourceAlpha" type="matrix" values="0 0 0 0 0 0 0 0 0 0 0 0 0 0 0 0 0 0 127 0" result="hardAlpha"/>
<feOffset dy="11"/>
<feGaussianBlur stdDeviation="11"/>
<feColorMatrix type="matrix" values="0 0 0 0 0.397708 0 0 0 0 0.47749 0 0 0 0 0.575 0 0 0 0.26 0"/>
<feBlend mode="normal" in2="BackgroundImageFix" result="effect1_dropShadow_1_20544"/>
<feBlend mode="normal" in="SourceGraphic" in2="effect1_dropShadow_1_20544" result="shape"/>
</filter>
<linearGradient id="paint0_linear_1_20544" x1="27.3191" y1="10.2347" x2="30.4209" y2="10.2347" gradientUnits="userSpaceOnUse">
<stop stop-color="#FF66A9"/>
<stop offset="1" stop-color="#F53689"/>
</linearGradient>
<linearGradient id="paint1_linear_1_20544" x1="77.1766" y1="88.0004" x2="80.2785" y2="88.0004" gradientUnits="userSpaceOnUse">
<stop stop-color="#FF66A9"/>
<stop offset="1" stop-color="#F53689"/>
</linearGradient>
<linearGradient id="paint2_linear_1_20544" x1="86.6502" y1="8.62176" x2="89.5635" y2="8.62176" gradientUnits="userSpaceOnUse">
<stop stop-color="#83A6FF"/>
<stop offset="1" stop-color="#5A78FF"/>
</linearGradient>
</defs>
</svg>
